<svg xmlns="http://www.w3.org/2000/svg" viewBox="0 0 300 300">
  <filter id="wc" x="-20%" y="-20%" width="140%" height="140%">
    <feTurbulence type="fractalNoise" baseFrequency="0.012 0.018" numOctaves="2" seed="11" result="n"/>
    <feDisplacementMap in="SourceGraphic" in2="n" scale="14"/>
  </filter>
  <g filter="url(#wc)">
    <g opacity="0.9">
      <circle cx="150" cy="150" r="34" fill="#c76b73"/>
      <circle cx="150" cy="150" r="24" fill="#e6a5ab"/>
      <circle cx="150" cy="150" r="13" fill="#c76b73"/>
      <circle cx="95" cy="120" r="26" fill="#e6a5ab" opacity="0.85"/>
      <circle cx="95" cy="120" r="15" fill="#c76b73" opacity="0.85"/>
      <circle cx="205" cy="115" r="22" fill="#c76b73" opacity="0.75"/>
      <circle cx="205" cy="115" r="12" fill="#e6a5ab" opacity="0.85"/>
      <circle cx="120" cy="205" r="20" fill="#e6a5ab" opacity="0.7"/>
      <circle cx="190" cy="200" r="18" fill="#c76b73" opacity="0.65"/>
    </g>
    <g opacity="0.8" fill="#3f5236">
      <ellipse cx="60" cy="170" rx="22" ry="9" transform="rotate(-30 60 170)"/>
      <ellipse cx="235" cy="150" rx="24" ry="10" transform="rotate(25 235 150)"/>
      <ellipse cx="150" cy="235" rx="20" ry="9" transform="rotate(80 150 235)"/>
      <ellipse cx="100" cy="70" rx="20" ry="9" transform="rotate(-50 100 70)"/>
      <ellipse cx="220" cy="60" rx="18" ry="8" transform="rotate(40 220 60)"/>
    </g>
    <g stroke="#3f5236" stroke-width="3" fill="none" opacity="0.6">
      <path d="M150,180 C140,210 130,240 110,265"/>
      <path d="M170,180 C185,205 200,230 210,260"/>
    </g>
  </g>
</svg>
